<svg id="visual" viewBox="0 0 900 600" width="900" height="600" xmlns="http://www.w3.org/2000/svg" xmlns:xlink="http://www.w3.org/1999/xlink" version="1.1"><path d="M0 103L13.7 125C27.3 147 54.7 191 82 194C109.3 197 136.7 159 163.8 140C191 121 218 121 245.2 116C272.3 111 299.7 101 327 110C354.3 119 381.7 147 409 166C436.3 185 463.7 195 491 194C518.3 193 545.7 181 573 165C600.3 149 627.7 129 654.8 129C682 129 709 149 736.2 153C763.3 157 790.7 145 818 131C845.3 117 872.7 101 886.3 93L900 85L900 0L886.3 0C872.7 0 845.3 0 818 0C790.7 0 763.3 0 736.2 0C709 0 682 0 654.8 0C627.7 0 600.3 0 573 0C545.7 0 518.3 0 491 0C463.7 0 436.3 0 409 0C381.7 0 354.3 0 327 0C299.7 0 272.3 0 245.2 0C218 0 191 0 163.8 0C136.7 0 109.3 0 82 0C54.7 0 27.3 0 13.7 0L0 0Z" fill="#7a8ec5"></path><path d="M0 193L13.7 208C27.3 223 54.7 253 82 253C109.3 253 136.7 223 163.8 204C191 185 218 177 245.2 179C272.3 181 299.7 193 327 207C354.3 221 381.7 237 409 247C436.3 257 463.7 261 491 262C518.3 263 545.7 261 573 242C600.3 223 627.7 187 654.8 184C682 181 709 211 736.2 215C763.3 219 790.7 197 818 193C845.3 189 872.7 203 886.3 210L900 217L900 83L886.3 91C872.7 99 845.3 115 818 129C790.7 143 763.3 155 736.2 151C709 147 682 127 654.8 127C627.7 127 600.3 147 573 163C545.7 179 518.3 191 491 192C463.7 193 436.3 183 409 164C381.7 145 354.3 117 327 108C299.7 99 272.3 109 245.2 114C218 119 191 119 163.8 138C136.7 157 109.3 195 82 192C54.7 189 27.3 145 13.7 123L0 101Z" fill="#6079b9"></path><path d="M0 253L13.7 276C27.3 299 54.7 345 82 354C109.3 363 136.7 335 163.8 309C191 283 218 259 245.2 258C272.3 257 299.7 279 327 306C354.3 333 381.7 365 409 385C436.3 405 463.7 413 491 399C518.3 385 545.7 349 573 325C600.3 301 627.7 289 654.8 291C682 293 709 309 736.2 309C763.3 309 790.7 293 818 291C845.3 289 872.7 301 886.3 307L900 313L900 215L886.3 208C872.7 201 845.3 187 818 191C790.7 195 763.3 217 736.2 213C709 209 682 179 654.8 182C627.7 185 600.3 221 573 240C545.7 259 518.3 261 491 260C463.7 259 436.3 255 409 245C381.7 235 354.3 219 327 205C299.7 191 272.3 179 245.2 177C218 175 191 183 163.8 202C136.7 221 109.3 251 82 251C54.7 251 27.3 221 13.7 206L0 191Z" fill="#4464ad"></path><path d="M0 499L13.7 508C27.3 517 54.7 535 82 546C109.3 557 136.7 561 163.8 555C191 549 218 533 245.2 523C272.3 513 299.7 509 327 507C354.3 505 381.7 505 409 514C436.3 523 463.7 541 491 545C518.3 549 545.7 539 573 533C600.3 527 627.7 525 654.8 521C682 517 709 511 736.2 507C763.3 503 790.7 501 818 511C845.3 521 872.7 543 886.3 554L900 565L900 311L886.3 305C872.7 299 845.3 287 818 289C790.7 291 763.3 307 736.2 307C709 307 682 291 654.8 289C627.7 287 600.3 299 573 323C545.7 347 518.3 383 491 397C463.7 411 436.3 403 409 383C381.7 363 354.3 331 327 304C299.7 277 272.3 255 245.2 256C218 257 191 281 163.8 307C136.7 333 109.3 361 82 352C54.7 343 27.3 297 13.7 274L0 251Z" fill="#3a5796"></path><path d="M0 601L13.7 601C27.3 601 54.7 601 82 601C109.3 601 136.7 601 163.8 601C191 601 218 601 245.2 601C272.3 601 299.7 601 327 601C354.3 601 381.7 601 409 601C436.3 601 463.7 601 491 601C518.3 601 545.7 601 573 601C600.3 601 627.7 601 654.8 601C682 601 709 601 736.2 601C763.3 601 790.7 601 818 601C845.3 601 872.7 601 886.3 601L900 601L900 563L886.3 552C872.7 541 845.3 519 818 509C790.7 499 763.3 501 736.2 505C709 509 682 515 654.8 519C627.7 523 600.3 525 573 531C545.7 537 518.3 547 491 543C463.7 539 436.3 521 409 512C381.7 503 354.3 503 327 505C299.7 507 272.3 511 245.2 521C218 531 191 547 163.8 553C136.7 559 109.3 555 82 544C54.7 533 27.3 515 13.7 506L0 497Z" fill="#314a7f"></path></svg>