<svg id="visual" viewBox="0 0 900 600" width="900" height="600" xmlns="http://www.w3.org/2000/svg" xmlns:xlink="http://www.w3.org/1999/xlink" version="1.1"><rect x="0" y="0" width="900" height="600" fill="#4464ad"></rect><path d="M0 380L21.5 388.7C43 397.3 86 414.7 128.8 411.5C171.7 408.3 214.3 384.7 257.2 380C300 375.3 343 389.7 385.8 402.3C428.7 415 471.3 426 514.2 419.3C557 412.7 600 388.3 642.8 378.2C685.7 368 728.3 372 771.2 374.3C814 376.7 857 377.3 878.5 377.7L900 378L900 601L878.5 601C857 601 814 601 771.2 601C728.3 601 685.7 601 642.8 601C600 601 557 601 514.2 601C471.3 601 428.7 601 385.8 601C343 601 300 601 257.2 601C214.3 601 171.7 601 128.8 601C86 601 43 601 21.5 601L0 601Z" fill="#798dbe"></path><path d="M0 462L21.5 462.7C43 463.3 86 464.7 128.8 466.5C171.7 468.3 214.3 470.7 257.2 466.2C300 461.7 343 450.3 385.8 440.8C428.7 431.3 471.3 423.7 514.2 420.2C557 416.7 600 417.3 642.8 424.3C685.7 431.3 728.3 444.7 771.2 444.5C814 444.3 857 430.7 878.5 423.8L900 417L900 601L878.5 601C857 601 814 601 771.2 601C728.3 601 685.7 601 642.8 601C600 601 557 601 514.2 601C471.3 601 428.7 601 385.8 601C343 601 300 601 257.2 601C214.3 601 171.7 601 128.8 601C86 601 43 601 21.5 601L0 601Z" fill="#9ba8ce"></path><path d="M0 493L21.5 490.3C43 487.7 86 482.3 128.8 482.8C171.7 483.3 214.3 489.7 257.2 487C300 484.3 343 472.7 385.8 473.3C428.7 474 471.3 487 514.2 488.3C557 489.7 600 479.3 642.8 478.2C685.7 477 728.3 485 771.2 485.8C814 486.7 857 480.3 878.5 477.2L900 474L900 601L878.5 601C857 601 814 601 771.2 601C728.3 601 685.7 601 642.8 601C600 601 557 601 514.2 601C471.3 601 428.7 601 385.8 601C343 601 300 601 257.2 601C214.3 601 171.7 601 128.8 601C86 601 43 601 21.5 601L0 601Z" fill="#bcc4de"></path><path d="M0 533L21.5 527C43 521 86 509 128.8 506.8C171.7 504.7 214.3 512.3 257.2 514.5C300 516.7 343 513.3 385.8 507.7C428.7 502 471.3 494 514.2 490.8C557 487.7 600 489.3 642.8 493.3C685.7 497.3 728.3 503.7 771.2 505.5C814 507.3 857 504.7 878.5 503.3L900 502L900 601L878.5 601C857 601 814 601 771.2 601C728.3 601 685.7 601 642.8 601C600 601 557 601 514.2 601C471.3 601 428.7 601 385.8 601C343 601 300 601 257.2 601C214.3 601 171.7 601 128.8 601C86 601 43 601 21.5 601L0 601Z" fill="#dde1ee"></path><path d="M0 563L21.5 558.3C43 553.7 86 544.3 128.8 539.8C171.7 535.3 214.3 535.7 257.2 537.5C300 539.3 343 542.7 385.8 545C428.7 547.3 471.3 548.7 514.2 545.3C557 542 600 534 642.8 530.5C685.7 527 728.3 528 771.2 532.8C814 537.7 857 546.3 878.5 550.7L900 555L900 601L878.5 601C857 601 814 601 771.2 601C728.3 601 685.7 601 642.8 601C600 601 557 601 514.2 601C471.3 601 428.7 601 385.8 601C343 601 300 601 257.2 601C214.3 601 171.7 601 128.8 601C86 601 43 601 21.5 601L0 601Z" fill="#ffffff"></path></svg>